# xmcd CD database file
#
# Track frame offsets:
#	150
#	31761
#	65083
#	93547
#	115606
#	141955
#	167496
#	183614
#	218299
#	253367
#	286609
#	330217
#
# Disc length: 4782 seconds
#
# Revision: 0
# Processed by: cddbd v1.5.2PL0 Copyright (c) Steve Scherf et al.
# Submitted via: CDex 1.70beta2
#
DISCID=a212ac0c
DTITLE=Various Artist - У Jazz Колі Друзів
DYEAR=2008
DGENRE=Jazz
TTITLE0=Morning After
TTITLE1=Silver Blues
TTITLE2=Another Day With You
TTITLE3=Spring
TTITLE4=All The Things You Need
TTITLE5=Al Claps
TTITLE6=On The Wings Of Songs
TTITLE7=People
TTITLE8=Gagarin
TTITLE9=Double Flash
TTITLE10=Знову під враженням
TTITLE11=У колі друзів
EXTD=YEAR: 2008
EXTT0=
EXTT1=
EXTT2=
EXTT3=
EXTT4=
EXTT5=
EXTT6=
EXTT7=
EXTT8=
EXTT9=
EXTT10=
EXTT11=
PLAYORDER=
